<svg xmlns="http://www.w3.org/2000/svg" fill="none" viewBox="1.52 41.4 98.07 18.64">
<g clip-path="url(#clip0_23541_9456)">
<path d="M65.2735 54.2365C64.9137 55.8674 63.8344 56.8267 62.2275 56.8267C60.6206 56.8267 60.2608 56.419 59.6132 55.4357C59.0136 54.4763 59.0616 52.2937 59.0616 51.6462C59.0616 51.6462 59.0616 47.9286 59.1575 47.4729C57.7425 47.425 56.3994 47.377 55.512 47.353C55.392 47.9047 55.416 52.1259 55.416 52.1259C55.416 54.1645 55.5839 56.0113 56.7351 57.4983C57.9823 59.0812 59.949 60.0406 62.2035 60.0406C66.041 60.0406 68.4873 57.4503 68.943 54.2604H65.2495L65.2735 54.2365Z" fill="#337ACE"/>
<path d="M59.6103 46.0543C59.7303 45.8384 60.4018 44.5912 62.2486 44.5912C64.0954 44.5912 64.575 45.3108 65.0547 46.486C66.3259 46.6299 67.645 46.8218 68.9401 47.0616C68.4605 43.9437 66.11 41.4014 62.2486 41.4014C58.3872 41.4014 59.4904 41.7851 58.579 42.3607C57.0201 43.3441 56.2046 44.5193 55.7969 45.9344C56.6843 45.9344 58.0274 45.9823 59.6103 46.0543Z" fill="black"/>
<path d="M12.9638 43.2962C11.7886 42.0491 10.0618 41.5454 7.9032 41.5454H1.52344V55.2883C2.67467 54.8326 3.87387 54.4009 5.09706 53.9691V44.7353H7.83124C9.00646 44.7353 9.89387 45.143 10.4695 45.8625C11.165 46.726 11.237 47.4695 11.237 52.0264C12.4122 51.6907 14.8346 51.0671 14.8346 51.0671C14.8346 46.654 14.8346 45.239 12.9878 43.2962H12.9638Z" fill="black"/>
<path d="M35.0506 51.9546C36.4656 51.4509 37.7608 50.3236 38.2165 48.5488C35.0026 49.0285 30.0139 49.8919 25.2891 51.1391V59.8453H28.8627V52.5542H31.429L35.0026 59.8453H39.1279L35.0506 51.9546Z" fill="#337ACE"/>
<path d="M53.4769 56.6319H45.0346V52.2188H52.2538C52.2538 52.1949 52.2538 52.1949 52.2538 52.1949V49.005H45.0346V47.7578C43.8593 47.8537 42.6601 47.9977 41.4609 48.1416V59.8698H53.5009V56.6799H53.4769V56.6319Z" fill="#337ACE"/>
<path d="M8.13985 59.8422C10.0346 59.8422 11.7614 59.2906 12.9606 58.0914C14.0399 57.0121 14.4956 55.7889 14.6875 54.4458C10.3224 56.0767 6.413 57.8995 3.03125 59.8422H8.11587H8.13985Z" fill="#337ACE"/>
<path d="M18.1172 59.8474H21.6908V52.1245C20.4676 52.4843 19.2924 52.844 18.1172 53.2278V59.8234V59.8474Z" fill="#337ACE"/>
<path d="M18.1172 50.2516C19.2924 49.9878 20.4676 49.724 21.6908 49.4841V41.5454H18.1172V50.2516Z" fill="black"/>
<path d="M53.4769 41.5454H41.4609V46.606C42.6601 46.4861 43.8354 46.3902 45.0346 46.3182V44.7353H53.5009V41.5454H53.4769Z" fill="black"/>
<path d="M93.5265 59.8452H90.8643L84.8203 41.5454H88.5139L92.1834 53.4655L95.877 41.5454H99.5945L93.5265 59.8452Z" fill="#337ACE"/>
<path d="M78.2761 44.7353V59.8452H74.7025V44.7353H69.9297V41.5454H83.0729V44.7353H78.2761Z" fill="#337ACE"/>
<path d="M28.8627 44.7353H32.2205C33.7554 44.7353 34.8107 45.6227 34.8107 47.3496L38.3844 46.9178C38.2644 43.9678 36.0819 41.5454 32.4603 41.5454H25.2891V48.8126C26.4643 48.5967 27.6635 48.4048 28.8627 48.213V44.7353Z" fill="black"/>
</g>
<defs>
<clipPath id="clip0_23541_9456">
<rect width="98.0708" height="18.6116" fill="white" transform="translate(1.52344 41.4019)"/>
</clipPath>
</defs>
</svg>