<svg xmlns="http://www.w3.org/2000/svg" fill="none" viewBox="5.81 73.82 187.55 52.88">
<path d="M61.4463 89.8662H72.8309V93.5302H65.6421V97.6411H71.8515V101.25H65.6421V108.607H61.4463V89.8662ZM74.5636 102.005V89.8662H78.7594V101.949C78.7594 104.271 80.1021 105.25 81.5845 105.25C83.0389 105.25 84.3815 104.271 84.3815 101.949V89.8662H88.5773V102.005C88.5773 106.537 85.6398 108.943 81.5845 108.943C77.5004 108.943 74.5636 106.537 74.5636 102.005ZM99.2034 93.5576V108.607H95.0076V93.5576H90.3929V89.8662H103.819V93.5576H99.2034ZM105.664 102.005V89.8662H109.859V101.949C109.859 104.271 111.203 105.25 112.685 105.25C114.139 105.25 115.482 104.271 115.482 101.949V89.8662H119.678V102.005C119.678 106.537 116.741 108.943 112.685 108.943C108.601 108.943 105.664 106.537 105.664 102.005ZM131.787 100.914L135.536 108.607H130.752L127.787 102.145H126.053V108.607H121.858V89.8662H128.151C131.927 89.8662 134.193 92.1033 134.193 95.6562C134.193 97.9495 132.878 99.7122 131.787 100.914ZM126.053 98.5362H128.906C129.565 97.7523 129.931 96.7638 129.941 95.7398C129.941 94.6213 129.354 93.5302 128.04 93.5302H126.053V98.5362ZM136.96 89.8662H148.457V93.5302H141.156V97.2216H147.366V100.831H141.156V104.943H148.513V108.607H136.96V89.8662Z" fill="#FF0000"/>
<path d="M166.499 100.718L166.751 103.293H166.891L167.142 100.467L169.157 89.8662H173.436L169.296 108.774H164.429L162.108 97.5013L161.968 95.2642H161.716L161.52 97.5013L159.171 108.774H154.388L150.22 89.8662H154.695L156.737 100.691L156.933 103.293H157.128L157.324 100.718L159.59 89.8662H164.234L166.499 100.718ZM175.167 89.8662H186.663V93.5302H179.363V97.2216H185.573V100.831H179.363V104.943H186.719V108.607H175.167V89.8662ZM189.067 108.607V89.8662H193.204V108.607H189.067ZM128.04 114.958L127.965 115.386C127.953 115.487 127.914 115.537 127.826 115.537H125.279L123.955 123.924C123.951 123.96 123.933 123.994 123.905 124.017C123.877 124.041 123.84 124.053 123.804 124.05H123.312C123.223 124.05 123.186 123.999 123.198 123.924L124.522 115.537H122.013C121.925 115.537 121.887 115.5 121.912 115.399L121.975 114.971C121.987 114.869 122.026 114.819 122.126 114.819H127.927C128.015 114.819 128.053 114.869 128.04 114.958ZM132.541 119.018C132.534 119.247 132.508 119.475 132.465 119.699L132.326 120.569C132.324 120.612 132.312 120.654 132.293 120.692C132.274 120.73 132.246 120.764 132.213 120.791C132.18 120.819 132.142 120.839 132.101 120.851C132.059 120.862 132.016 120.865 131.974 120.859H128.026L127.913 121.553C127.884 121.724 127.867 121.897 127.862 122.07C127.862 123.041 128.417 123.532 129.388 123.532C129.781 123.561 130.174 123.476 130.52 123.289C130.867 123.101 131.152 122.818 131.343 122.474C131.406 122.372 131.482 122.36 131.557 122.41L131.872 122.587C131.974 122.65 131.961 122.725 131.91 122.814C131.647 123.248 131.271 123.604 130.823 123.843C130.375 124.083 129.871 124.198 129.363 124.175C127.913 124.175 127.143 123.394 127.143 122.146C127.148 121.964 127.165 121.783 127.194 121.603L127.522 119.535C127.59 118.838 127.918 118.192 128.442 117.727C128.966 117.261 129.646 117.011 130.346 117.026C131.708 117.026 132.541 117.82 132.541 119.018ZM131.835 119.107C131.835 118.173 131.279 117.682 130.321 117.682C129.237 117.682 128.43 118.337 128.228 119.611L128.115 120.279H131.658L131.771 119.649C131.81 119.471 131.831 119.289 131.835 119.107ZM139.146 118.602C139.184 118.753 139.146 118.804 139.057 118.829L138.642 118.968C138.625 118.975 138.607 118.978 138.589 118.977C138.572 118.976 138.554 118.971 138.538 118.963C138.523 118.954 138.509 118.942 138.499 118.928C138.488 118.913 138.481 118.897 138.478 118.879C138.44 118.536 138.27 118.222 138.004 118.003C137.738 117.784 137.396 117.677 137.053 117.707C135.981 117.707 135.249 118.35 135.022 119.712L134.745 121.553C134.711 121.719 134.694 121.888 134.694 122.057C134.669 122.251 134.688 122.449 134.75 122.635C134.813 122.82 134.917 122.989 135.054 123.129C135.191 123.269 135.359 123.376 135.543 123.441C135.728 123.507 135.925 123.529 136.12 123.507C136.513 123.525 136.902 123.419 137.232 123.204C137.562 122.989 137.817 122.676 137.96 122.31C138.011 122.208 138.061 122.183 138.15 122.221L138.541 122.385C138.642 122.423 138.642 122.499 138.591 122.574C138.386 123.068 138.033 123.486 137.582 123.772C137.131 124.058 136.603 124.199 136.069 124.175C134.707 124.175 133.95 123.407 133.95 122.146C133.949 121.959 133.966 121.773 134.001 121.59L134.316 119.624C134.568 118.06 135.514 117.026 137.04 117.026C137.525 116.975 138.011 117.109 138.402 117.401C138.792 117.693 139.058 118.122 139.146 118.602ZM145.776 118.766C145.778 118.944 145.761 119.121 145.726 119.296L144.995 123.924C144.994 123.942 144.989 123.96 144.981 123.977C144.973 123.994 144.961 124.008 144.947 124.02C144.933 124.032 144.916 124.041 144.898 124.046C144.88 124.051 144.862 124.052 144.843 124.05H144.402C144.301 124.05 144.251 123.999 144.276 123.924L144.982 119.435C145.016 119.256 145.033 119.074 145.033 118.892C145.057 118.733 145.044 118.571 144.995 118.417C144.946 118.264 144.862 118.124 144.749 118.009C144.636 117.894 144.499 117.807 144.346 117.755C144.194 117.702 144.032 117.686 143.872 117.707C143.091 117.707 142.158 118.387 141.653 119.358L140.934 123.924C140.93 123.96 140.912 123.994 140.884 124.017C140.856 124.041 140.82 124.052 140.783 124.05H140.329C140.241 124.05 140.203 123.999 140.215 123.924L141.691 114.63C141.695 114.593 141.713 114.56 141.741 114.536C141.769 114.513 141.805 114.501 141.842 114.504H142.296C142.384 114.504 142.422 114.554 142.409 114.63L141.817 118.325C142.073 117.949 142.412 117.636 142.807 117.411C143.203 117.186 143.645 117.054 144.099 117.026C144.329 117.009 144.56 117.043 144.775 117.126C144.99 117.208 145.185 117.337 145.345 117.503C145.505 117.669 145.626 117.868 145.701 118.086C145.775 118.305 145.801 118.536 145.776 118.766ZM152.811 118.766C152.812 118.944 152.795 119.121 152.76 119.296L152.029 123.924C152.028 123.942 152.023 123.96 152.015 123.977C152.007 123.994 151.995 124.008 151.981 124.02C151.967 124.032 151.95 124.041 151.932 124.046C151.915 124.051 151.896 124.052 151.878 124.05H151.436C151.335 124.05 151.285 123.999 151.31 123.924L152.016 119.435C152.051 119.256 152.067 119.074 152.067 118.892C152.091 118.733 152.078 118.571 152.029 118.417C151.98 118.264 151.896 118.124 151.783 118.009C151.67 117.894 151.533 117.807 151.38 117.755C151.228 117.702 151.066 117.686 150.906 117.707C150.125 117.707 149.204 118.375 148.7 119.346L147.968 123.924C147.967 123.942 147.963 123.96 147.954 123.977C147.946 123.993 147.935 124.008 147.92 124.02C147.906 124.032 147.89 124.041 147.872 124.046C147.854 124.051 147.835 124.052 147.817 124.05H147.375C147.275 124.05 147.237 123.999 147.25 123.924L148.308 117.278C148.312 117.241 148.33 117.208 148.359 117.184C148.387 117.161 148.423 117.149 148.46 117.152H148.901C148.99 117.152 149.028 117.203 149.015 117.278L148.851 118.337C149.104 117.956 149.441 117.64 149.837 117.412C150.233 117.185 150.677 117.052 151.133 117.026C151.363 117.009 151.594 117.043 151.809 117.126C152.024 117.208 152.219 117.337 152.379 117.503C152.539 117.669 152.66 117.868 152.735 118.086C152.81 118.305 152.835 118.536 152.811 118.766ZM159.983 119.081C159.98 119.272 159.963 119.461 159.933 119.649L159.618 121.641C159.561 122.364 159.222 123.034 158.675 123.508C158.127 123.983 157.415 124.222 156.692 124.175C155.242 124.175 154.41 123.368 154.41 122.146C154.414 121.956 154.431 121.766 154.46 121.578L154.788 119.56C155.028 117.972 156.037 117.026 157.688 117.026C159.138 117.026 159.983 117.858 159.983 119.081ZM155.481 119.674L155.192 121.553C155.16 121.719 155.144 121.888 155.141 122.057C155.141 123.003 155.746 123.507 156.73 123.507C157.275 123.536 157.809 123.348 158.215 122.984C158.622 122.62 158.868 122.11 158.899 121.565L159.189 119.75C159.228 119.559 159.249 119.364 159.252 119.169C159.252 118.224 158.634 117.707 157.663 117.707C156.516 117.707 155.696 118.35 155.481 119.674ZM163.549 114.63L162.074 123.924C162.07 123.96 162.052 123.994 162.024 124.017C161.996 124.041 161.959 124.052 161.923 124.05H161.469C161.38 124.05 161.342 123.999 161.355 123.924L162.831 114.63C162.834 114.593 162.852 114.56 162.881 114.536C162.909 114.513 162.945 114.501 162.982 114.504H163.436C163.524 114.504 163.562 114.554 163.549 114.63ZM170.08 119.081C170.077 119.272 170.06 119.461 170.03 119.649L169.715 121.641C169.658 122.364 169.319 123.034 168.772 123.508C168.224 123.983 167.512 124.222 166.789 124.175C165.339 124.175 164.507 123.368 164.507 122.146C164.511 121.956 164.528 121.766 164.557 121.578L164.885 119.56C165.124 117.972 166.134 117.026 167.785 117.026C169.235 117.026 170.08 117.858 170.08 119.081ZM165.578 119.674L165.289 121.553C165.257 121.719 165.241 121.888 165.238 122.057C165.238 123.003 165.843 123.507 166.827 123.507C167.372 123.536 167.906 123.348 168.312 122.984C168.719 122.62 168.965 122.11 168.996 121.565L169.286 119.75C169.325 119.559 169.346 119.364 169.349 119.169C169.349 118.224 168.731 117.707 167.76 117.707C166.613 117.707 165.793 118.35 165.578 119.674ZM177.278 117.921L176.332 123.873C176.017 125.815 174.819 126.698 173.344 126.698C172.933 126.711 172.525 126.636 172.146 126.477C171.768 126.318 171.428 126.08 171.149 125.777C171.135 125.765 171.123 125.75 171.114 125.732C171.106 125.715 171.102 125.696 171.102 125.676C171.102 125.657 171.106 125.638 171.114 125.62C171.123 125.603 171.135 125.588 171.149 125.575L171.389 125.285C171.401 125.268 171.417 125.254 171.436 125.244C171.454 125.234 171.475 125.229 171.496 125.229C171.517 125.229 171.538 125.234 171.557 125.244C171.575 125.254 171.591 125.268 171.603 125.285C171.818 125.528 172.082 125.721 172.378 125.851C172.674 125.982 172.995 126.047 173.318 126.042C174.441 126.042 175.349 125.449 175.613 123.81L175.803 122.574C175.551 123.012 175.198 123.382 174.771 123.652C174.345 123.923 173.859 124.085 173.356 124.125C172.234 124.125 171.603 123.394 171.603 122.208C171.603 121.997 171.62 121.786 171.654 121.578L171.969 119.598C172.209 118.06 173.142 117.101 174.706 117.101C175.561 117.12 176.403 117.318 177.177 117.682C177.291 117.744 177.303 117.795 177.278 117.921ZM176.496 118.148C175.936 117.897 175.331 117.765 174.718 117.757C173.558 117.757 172.877 118.451 172.688 119.636L172.385 121.503C172.351 121.702 172.335 121.905 172.335 122.107C172.335 123.003 172.751 123.457 173.533 123.457C174.352 123.457 175.285 122.839 175.967 121.565L176.496 118.148ZM180.378 117.278L179.319 123.924C179.315 123.96 179.297 123.994 179.269 124.017C179.24 124.041 179.204 124.052 179.168 124.05H178.714C178.625 124.05 178.587 123.999 178.6 123.924L179.659 117.278C179.663 117.241 179.681 117.208 179.709 117.184C179.737 117.161 179.774 117.149 179.811 117.152H180.264C180.353 117.152 180.39 117.203 180.378 117.278ZM180.794 114.655L180.592 115.878C180.588 115.918 180.569 115.955 180.539 115.981C180.508 116.007 180.468 116.02 180.428 116.017H179.987C179.899 116.017 179.848 115.966 179.874 115.878L180.062 114.655C180.067 114.612 180.087 114.572 180.12 114.544C180.153 114.515 180.196 114.501 180.239 114.504H180.668C180.769 114.504 180.807 114.554 180.794 114.655ZM187.149 119.018C187.142 119.247 187.116 119.475 187.073 119.699L186.935 120.569C186.932 120.612 186.921 120.654 186.901 120.692C186.882 120.73 186.855 120.764 186.821 120.791C186.788 120.819 186.75 120.839 186.709 120.85C186.667 120.862 186.624 120.865 186.581 120.859H182.634L182.521 121.553C182.492 121.724 182.475 121.897 182.47 122.07C182.47 123.041 183.025 123.532 183.996 123.532C184.389 123.561 184.782 123.476 185.128 123.289C185.475 123.101 185.76 122.818 185.951 122.474C186.014 122.372 186.089 122.36 186.165 122.41L186.48 122.587C186.581 122.65 186.568 122.725 186.518 122.814C186.255 123.248 185.879 123.604 185.431 123.843C184.983 124.083 184.479 124.198 183.971 124.175C182.521 124.175 181.751 123.394 181.751 122.146C181.756 121.964 181.773 121.783 181.802 121.603L182.13 119.535C182.197 118.838 182.526 118.192 183.05 117.727C183.574 117.261 184.254 117.011 184.954 117.026C186.316 117.026 187.149 117.82 187.149 119.018ZM186.443 119.107C186.443 118.173 185.887 117.682 184.929 117.682C183.844 117.682 183.037 118.337 182.836 119.611L182.722 120.279H186.266L186.379 119.649C186.418 119.471 186.439 119.289 186.443 119.107ZM193.363 118.551C193.375 118.665 193.363 118.715 193.236 118.74L192.908 118.842C192.796 118.879 192.745 118.842 192.719 118.766C192.704 118.601 192.655 118.441 192.576 118.296C192.498 118.151 192.39 118.023 192.261 117.921C192.131 117.818 191.982 117.743 191.822 117.7C191.663 117.656 191.496 117.646 191.333 117.669C190.059 117.669 189.655 118.4 189.655 118.93C189.655 119.573 190.286 119.838 191.131 120.178C192.152 120.594 192.96 121.036 192.96 122.07C192.96 123.041 192.265 124.188 190.5 124.188C189.252 124.188 188.382 123.558 188.243 122.599C188.218 122.474 188.243 122.423 188.344 122.397L188.697 122.284C188.811 122.246 188.861 122.271 188.886 122.372C188.975 123.117 189.605 123.545 190.5 123.545C191.774 123.545 192.24 122.763 192.24 122.133C192.24 121.414 191.622 121.162 190.689 120.783C189.668 120.355 188.937 119.951 188.937 118.955C188.937 118.085 189.605 117.039 191.294 117.039C192.468 117.039 193.224 117.631 193.363 118.551Z" fill="#231815"/>
<path d="M47.3214 119.363C48.6719 119.363 49.7667 118.269 49.7667 116.918C49.7667 115.567 48.6719 114.473 47.3214 114.473C45.9708 114.473 44.876 115.567 44.876 116.918C44.876 118.269 45.9708 119.363 47.3214 119.363Z" fill="#FF0000"/>
<path d="M50.399 111.796C51.6145 111.796 52.5998 110.811 52.5998 109.595C52.5998 108.38 51.6145 107.395 50.399 107.395C49.1836 107.395 48.1982 108.38 48.1982 109.595C48.1982 110.811 49.1836 111.796 50.399 111.796Z" fill="#FF0000"/>
<path d="M51.348 104.429C52.442 104.429 53.3288 103.543 53.3288 102.449C53.3288 101.355 52.442 100.468 51.348 100.468C50.254 100.468 49.3672 101.355 49.3672 102.449C49.3672 103.543 50.254 104.429 51.348 104.429Z" fill="#FF0000"/>
<path d="M49.6497 97.6021C50.6341 97.6021 51.4321 96.804 51.4321 95.8196C51.4321 94.8352 50.6341 94.0371 49.6497 94.0371C48.6652 94.0371 47.8672 94.8352 47.8672 95.8196C47.8672 96.804 48.6652 97.6021 49.6497 97.6021Z" fill="#FF0000"/>
<path d="M46.1707 92.819C47.0568 92.819 47.7751 92.1007 47.7751 91.2147C47.7751 90.3286 47.0568 89.6104 46.1707 89.6104C45.2847 89.6104 44.5664 90.3286 44.5664 91.2147C44.5664 92.1007 45.2847 92.819 46.1707 92.819Z" fill="#FF0000"/>
<path d="M41.7769 89.4806C42.5743 89.4806 43.2208 88.8341 43.2208 88.0367C43.2208 87.2392 42.5743 86.5928 41.7769 86.5928C40.9795 86.5928 40.333 87.2392 40.333 88.0367C40.333 88.8341 40.9795 89.4806 41.7769 89.4806Z" fill="#FF0000"/>
<path d="M37.2821 87.9197C37.9999 87.9197 38.5818 87.3378 38.5818 86.62C38.5818 85.9022 37.9999 85.3203 37.2821 85.3203C36.5643 85.3203 35.9824 85.9022 35.9824 86.62C35.9824 87.3378 36.5643 87.9197 37.2821 87.9197Z" fill="#FF0000"/>
<path d="M33.0111 88.4694C33.6569 88.4694 34.1804 87.9459 34.1804 87.3002C34.1804 86.6544 33.6569 86.1309 33.0111 86.1309C32.3653 86.1309 31.8418 86.6544 31.8418 87.3002C31.8418 87.9459 32.3653 88.4694 33.0111 88.4694Z" fill="#FF0000"/>
<path d="M29.3486 90.2528C29.9299 90.2528 30.4012 89.7815 30.4012 89.2001C30.4012 88.6188 29.9299 88.1475 29.3486 88.1475C28.7672 88.1475 28.2959 88.6188 28.2959 89.2001C28.2959 89.7815 28.7672 90.2528 29.3486 90.2528Z" fill="#FF0000"/>
<path d="M26.9288 92.964C27.452 92.964 27.8761 92.5399 27.8761 92.0167C27.8761 91.4935 27.452 91.0693 26.9288 91.0693C26.4056 91.0693 25.9814 91.4935 25.9814 92.0167C25.9814 92.5399 26.4056 92.964 26.9288 92.964Z" fill="#FF0000"/>
<path d="M26.8885 96.65C27.3592 96.65 27.7409 96.2684 27.7409 95.7977C27.7409 95.3269 27.3592 94.9453 26.8885 94.9453C26.4177 94.9453 26.0361 95.3269 26.0361 95.7977C26.0361 96.2684 26.4177 96.65 26.8885 96.65Z" fill="#FF0000"/>
<path d="M39.6006 78.713C40.9512 78.713 42.046 77.6182 42.046 76.2676C42.046 74.9171 40.9512 73.8223 39.6006 73.8223C38.2501 73.8223 37.1553 74.9171 37.1553 76.2676C37.1553 77.6182 38.2501 78.713 39.6006 78.713Z" fill="#FF0000"/>
<path d="M31.7213 79.4651C32.9368 79.4651 33.9221 78.4797 33.9221 77.2643C33.9221 76.0488 32.9368 75.0635 31.7213 75.0635C30.5058 75.0635 29.5205 76.0488 29.5205 77.2643C29.5205 78.4797 30.5058 79.4651 31.7213 79.4651Z" fill="#FF0000"/>
<path d="M25.058 81.9958C26.1519 81.9958 27.0388 81.109 27.0388 80.015C27.0388 78.921 26.1519 78.0342 25.058 78.0342C23.964 78.0342 23.0771 78.921 23.0771 80.015C23.0771 81.109 23.964 81.9958 25.058 81.9958Z" fill="#FF0000"/>
<path d="M20.1653 86.5835C21.1497 86.5835 21.9478 85.7855 21.9478 84.801C21.9478 83.8166 21.1497 83.0186 20.1653 83.0186C19.1809 83.0186 18.3828 83.8166 18.3828 84.801C18.3828 85.7855 19.1809 86.5835 20.1653 86.5835Z" fill="#FF0000"/>
<path d="M17.9178 91.7204C18.8039 91.7204 19.5221 91.0021 19.5221 90.116C19.5221 89.23 18.8039 88.5117 17.9178 88.5117C17.0318 88.5117 16.3135 89.23 16.3135 90.116C16.3135 91.0021 17.0318 91.7204 17.9178 91.7204Z" fill="#FF0000"/>
<path d="M17.3628 96.9542C18.1603 96.9542 18.8067 96.3077 18.8067 95.5103C18.8067 94.7129 18.1603 94.0664 17.3628 94.0664C16.5654 94.0664 15.9189 94.7129 15.9189 95.5103C15.9189 96.3077 16.5654 96.9542 17.3628 96.9542Z" fill="#FF0000"/>
<path d="M18.3827 101.41C19.1005 101.41 19.6824 100.828 19.6824 100.11C19.6824 99.3924 19.1005 98.8105 18.3827 98.8105C17.6649 98.8105 17.083 99.3924 17.083 100.11C17.083 100.828 17.6649 101.41 18.3827 101.41Z" fill="#FF0000"/>
<path d="M21.1068 104.637C21.7526 104.637 22.2761 104.114 22.2761 103.468C22.2761 102.822 21.7526 102.299 21.1068 102.299C20.461 102.299 19.9375 102.822 19.9375 103.468C19.9375 104.114 20.461 104.637 21.1068 104.637Z" fill="#FF0000"/>
<path d="M24.5839 106.744C25.1653 106.744 25.6366 106.273 25.6366 105.691C25.6366 105.11 25.1653 104.639 24.5839 104.639C24.0025 104.639 23.5312 105.11 23.5312 105.691C23.5312 106.273 24.0025 106.744 24.5839 106.744Z" fill="#FF0000"/>
<path d="M28.2335 107.326C28.7567 107.326 29.1808 106.902 29.1808 106.379C29.1808 105.856 28.7567 105.432 28.2335 105.432C27.7103 105.432 27.2861 105.856 27.2861 106.379C27.2861 106.902 27.7103 107.326 28.2335 107.326Z" fill="#FF0000"/>
<path d="M31.5272 105.375C31.9979 105.375 32.3795 104.993 32.3795 104.522C32.3795 104.052 31.9979 103.67 31.5272 103.67C31.0564 103.67 30.6748 104.052 30.6748 104.522C30.6748 104.993 31.0564 105.375 31.5272 105.375Z" fill="#FF0000"/>
<path d="M8.25787 105.724C9.60842 105.724 10.7032 104.629 10.7032 103.278C10.7032 101.928 9.60842 100.833 8.25787 100.833C6.90733 100.833 5.8125 101.928 5.8125 103.278C5.8125 104.629 6.90733 105.724 8.25787 105.724Z" fill="#FF0000"/>
<path d="M13.0611 111.806C14.2766 111.806 15.2619 110.821 15.2619 109.605C15.2619 108.39 14.2766 107.404 13.0611 107.404C11.8457 107.404 10.8604 108.39 10.8604 109.605C10.8604 110.821 11.8457 111.806 13.0611 111.806Z" fill="#FF0000"/>
<path d="M18.7738 115.98C19.8677 115.98 20.7546 115.093 20.7546 113.999C20.7546 112.905 19.8677 112.019 18.7738 112.019C17.6798 112.019 16.793 112.905 16.793 113.999C16.793 115.093 17.6798 115.98 18.7738 115.98Z" fill="#FF0000"/>
<path d="M25.3655 117.626C26.3499 117.626 27.148 116.828 27.148 115.844C27.148 114.86 26.3499 114.062 25.3655 114.062C24.3811 114.062 23.583 114.86 23.583 115.844C23.583 116.828 24.3811 117.626 25.3655 117.626Z" fill="#FF0000"/>
<path d="M31.0926 116.737C31.9787 116.737 32.6969 116.019 32.6969 115.133C32.6969 114.247 31.9787 113.528 31.0926 113.528C30.2066 113.528 29.4883 114.247 29.4883 115.133C29.4883 116.019 30.2066 116.737 31.0926 116.737Z" fill="#FF0000"/>
<path d="M36.0416 114.36C36.839 114.36 37.4855 113.714 37.4855 112.917C37.4855 112.119 36.839 111.473 36.0416 111.473C35.2441 111.473 34.5977 112.119 34.5977 112.917C34.5977 113.714 35.2441 114.36 36.0416 114.36Z" fill="#FF0000"/>
<path d="M39.5155 111.032C40.2333 111.032 40.8152 110.45 40.8152 109.732C40.8152 109.015 40.2333 108.433 39.5155 108.433C38.7977 108.433 38.2158 109.015 38.2158 109.732C38.2158 110.45 38.7977 111.032 39.5155 111.032Z" fill="#FF0000"/>
<path d="M41.0619 106.864C41.7077 106.864 42.2312 106.34 42.2312 105.695C42.2312 105.049 41.7077 104.525 41.0619 104.525C40.4161 104.525 39.8926 105.049 39.8926 105.695C39.8926 106.34 40.4161 106.864 41.0619 106.864Z" fill="#FF0000"/>
<path d="M41.247 102.624C41.8284 102.624 42.2997 102.153 42.2997 101.571C42.2997 100.99 41.8284 100.519 41.247 100.519C40.6656 100.519 40.1943 100.99 40.1943 101.571C40.1943 102.153 40.6656 102.624 41.247 102.624Z" fill="#FF0000"/>
<path d="M40.0186 99.0158C40.5418 99.0158 40.966 98.5916 40.966 98.0684C40.966 97.5452 40.5418 97.1211 40.0186 97.1211C39.4954 97.1211 39.0713 97.5452 39.0713 98.0684C39.0713 98.5916 39.4954 99.0158 40.0186 99.0158Z" fill="#FF0000"/>
<path d="M36.7635 96.9948C37.2342 96.9948 37.6159 96.6131 37.6159 96.1424C37.6159 95.6717 37.2342 95.29 36.7635 95.29C36.2927 95.29 35.9111 95.6717 35.9111 96.1424C35.9111 96.6131 36.2927 96.9948 36.7635 96.9948Z" fill="#FF0000"/>
</svg>