<svg xmlns="http://www.w3.org/2000/svg" fill="none" viewBox="10.09 44.93 80.79 11.46">
<g clip-path="url(#clip0_23541_9520)">
<path d="M60.6316 54.9204C62.136 54.9204 62.6011 53.884 62.916 52.6356H62.2102C61.2335 52.6356 59.6111 52.8018 59.6111 54.1083C59.6111 54.6496 60.1207 54.9204 60.6316 54.9204ZM62.6011 55.0254H62.5706C61.8798 55.897 61.1887 56.3931 60.0759 56.3931C58.6792 56.3931 57.6875 55.6113 57.6875 54.1847C57.6875 51.63 60.5423 51.4342 62.4356 51.4342H63.1414C63.2023 51.2232 63.2023 50.9979 63.2023 50.7735C63.2023 49.9918 62.3607 49.7665 61.6538 49.7665C60.7677 49.7665 59.9111 49.9918 59.1149 50.3675L59.4008 48.7595C60.2565 48.4593 61.1285 48.2939 62.0303 48.2939C63.5771 48.2939 65.0353 48.8653 65.0353 50.6828C65.0353 51.72 64.2689 54.7548 64.088 56.2131H62.3907L62.6011 55.0254Z" fill="black"/>
<path d="M10.4015 48.4659H11.8589L12.2044 46.8737L14.3685 46.1669L13.8725 48.4659H15.6753L15.36 49.9386H13.5568L12.8205 53.3198C12.7755 53.5003 12.7306 53.7702 12.7306 54.0704C12.7306 54.5361 13.0462 54.8218 13.4964 54.8218C13.8578 54.8218 14.218 54.747 14.4732 54.6418L14.1281 56.2046C13.7824 56.2793 13.3922 56.3853 13.0462 56.3853C11.6789 56.3853 10.7168 55.8437 10.7168 54.3554C10.7168 53.755 10.8371 53.1692 10.972 52.5537L11.5433 49.9386H10.0859L10.4015 48.4659Z" fill="black"/>
<path d="M17.2414 45.131H19.255L18.8343 47.0552H16.8206L17.2414 45.131ZM16.505 48.4674H18.5188L16.8656 56.2061H14.8516L16.505 48.4674Z" fill="black"/>
<path d="M24.5929 50.2389C24.2025 49.9834 23.6767 49.8486 23.1203 49.8486C21.5128 49.8486 20.6113 51.3509 20.6113 52.8087C20.6113 53.8148 20.9414 54.8218 22.3242 54.8218C22.8204 54.8218 23.4366 54.6867 23.9621 54.4309L23.7364 56.0246C23.1203 56.3248 22.4591 56.3853 21.7979 56.3853C19.7997 56.3853 18.5078 55.0478 18.5078 53.049C18.5078 50.3447 20.2956 48.2861 23.0751 48.2861C23.827 48.2861 24.548 48.4214 25.0889 48.5861L24.5929 50.2389Z" fill="black"/>
<path d="M26.8031 44.9368H28.8168L27.4789 51.2775H27.51L30.3198 48.4674H32.934L29.2231 51.9986L31.5513 56.2061H29.2826L27.2835 52.1039H27.2541L26.3824 56.2061H24.4141L26.8031 44.9368Z" fill="black"/>
<path d="M40.1905 48.4659H41.6479L41.9934 46.8737L44.1575 46.1669L43.6616 48.4659H45.4649L45.1489 49.9386H43.346L42.6095 53.3198C42.5645 53.5003 42.5199 53.7702 42.5199 54.0704C42.5199 54.5361 42.8351 54.8218 43.2861 54.8218C43.6466 54.8218 44.007 54.747 44.2622 54.6418L43.9174 56.2046C43.5714 56.2793 43.1808 56.3853 42.8351 56.3853C41.4678 56.3853 40.5059 55.8437 40.5059 54.3554C40.5059 53.755 40.626 53.1692 40.7617 52.5537L41.3321 49.9386H39.875L40.1905 48.4659Z" fill="black"/>
<path d="M39.5188 51.2307C39.5188 49.2629 38.2568 48.2861 36.3485 48.2861C33.8092 48.2861 31.9453 50.6002 31.9453 53.0037C31.9453 55.3027 33.4481 56.3853 35.6726 56.3853C36.4986 56.3853 37.3553 56.1896 38.1366 55.949L38.3919 54.3554C37.6407 54.7023 36.8438 54.9126 36.0174 54.9126C34.7298 54.9126 33.9772 54.4547 33.8809 53.2384H33.8793C33.8758 53.1679 33.8688 53.0986 33.8688 53.0246C33.8688 53.0102 33.8695 52.9957 33.8695 52.9815C33.8695 52.9732 33.8688 52.9671 33.8688 52.9589H33.8703C33.8793 52.4293 33.9955 51.9067 34.1979 51.4237C34.5849 50.4391 35.1314 49.7587 36.3184 49.7587C37.1593 49.7587 37.5956 50.2237 37.5956 51.0508C37.5956 51.2307 37.5802 51.3962 37.5507 51.5762H34.7953C34.6165 52.1845 34.5855 52.5919 34.5819 52.9589H39.3231C39.4434 52.3875 39.5188 51.8167 39.5188 51.2307Z" fill="black"/>
<path d="M46.3343 49.3241C46.3938 49.0238 46.4543 48.7086 46.4991 48.4674H48.3779L48.1974 49.504H48.2275C48.7685 48.7086 49.6545 48.2875 50.6011 48.2875C51.518 48.2875 52.4646 48.8281 52.5699 49.7602H52.6C53.1113 48.7531 54.2384 48.2875 55.3194 48.2875C56.476 48.2875 57.4688 49.2339 57.4688 50.4058C57.4688 51.0967 57.2872 51.8784 57.1227 52.5091L56.3112 56.2061H54.2973L55.1091 52.4342C55.2144 51.9685 55.3646 51.2465 55.3646 50.7816C55.3646 50.2101 54.9292 49.85 54.4183 49.85C53.0203 49.85 52.6749 51.4733 52.4191 52.5248L51.6233 56.2061H49.6097L50.4213 52.4342C50.5269 51.9685 50.6767 51.2465 50.6767 50.7816C50.6767 50.2101 50.2404 49.85 49.7294 49.85C48.3625 49.85 47.9867 51.4877 47.7316 52.5248L46.9348 56.2061H44.9219L46.3343 49.3241Z" fill="black"/>
<path d="M71.0113 50.0417C70.7953 49.9236 70.2396 49.7587 69.6688 49.7587C69.0673 49.7587 68.3163 49.9236 68.3163 50.539C68.3163 51.5164 70.9307 51.877 70.9307 53.7702C70.9307 55.7845 69.1729 56.3853 67.4456 56.3853C66.6334 56.3853 65.8216 56.2651 65.0859 55.9188L65.5223 54.3114C66.0921 54.6262 66.6638 54.9126 67.4456 54.9126C68.1203 54.9126 68.8275 54.6867 68.8275 54.056C68.8275 52.8087 66.2128 52.6876 66.2128 50.7498C66.2128 48.9325 67.9709 48.2861 69.5631 48.2861C70.3001 48.2861 71.0518 48.4214 71.4477 48.5243L71.0113 50.0417Z" fill="black"/>
<path d="M72.3007 48.4659H73.7582L74.1036 46.8737L76.2666 46.1669L75.7711 48.4659H77.5744L77.2594 49.9386H75.4551L74.7189 53.3198C74.6744 53.5003 74.6289 53.7702 74.6289 54.0704C74.6289 54.5361 74.9452 54.8218 75.3956 54.8218C75.7561 54.8218 76.1169 54.747 76.3723 54.6418L76.0262 56.2046C75.6805 56.2793 75.2906 56.3853 74.9452 56.3853C73.5773 56.3853 72.6157 55.8437 72.6157 54.3554C72.6157 53.755 72.7367 53.1692 72.8715 52.5537L73.4422 49.9386H71.9844L72.3007 48.4659Z" fill="black"/>
<path d="M85.9526 49.504C86.0121 49.1741 86.0726 48.8281 86.1332 48.4674H88.0565L87.7856 49.925H87.816C88.1775 49.0836 89.1679 48.2875 90.0998 48.2875C90.3556 48.2875 90.6254 48.3019 90.8658 48.3622L90.4455 50.3303C90.2205 50.2553 89.9336 50.2101 89.6788 50.2101C88.2507 50.2101 87.5599 51.4877 87.3051 52.735L86.5836 56.2061H84.5703L85.9526 49.504Z" fill="black"/>
<path d="M84.55 51.2307C84.55 49.2629 83.2878 48.2861 81.3795 48.2861C78.8407 48.2861 76.9766 50.6002 76.9766 53.0037C76.9766 55.3027 78.4792 56.3853 80.7034 56.3853C81.529 56.3853 82.3863 56.1896 83.1681 55.949L83.4229 54.3554C82.6715 54.7023 81.8754 54.9126 81.0488 54.9126C79.7605 54.9126 79.0085 54.4547 78.9112 53.2384H78.9099C78.9069 53.1679 78.8999 53.0986 78.8999 53.0246C78.8999 53.0102 78.9009 52.9957 78.9009 52.9815C78.9009 52.9732 78.8999 52.9671 78.8999 52.9589H78.9009C78.9099 52.4293 79.0262 51.9067 79.2285 51.4237C79.6151 50.4391 80.1621 49.7587 81.3491 49.7587C82.1904 49.7587 82.6267 50.2237 82.6267 51.0508C82.6267 51.2307 82.611 51.3962 82.5819 51.5762H79.8267C79.6468 52.1845 79.6164 52.5919 79.6121 52.9589H84.3544C84.4748 52.3875 84.55 51.8167 84.55 51.2307Z" fill="black"/>
</g>
<defs>
<clipPath id="clip0_23541_9520">
<rect width="80.779" height="11.4565" fill="white" transform="translate(10.1016 44.9336)"/>
</clipPath>
</defs>
</svg>