<svg width="134" height="20" viewBox="0 0 134 20" fill="none" xmlns="http://www.w3.org/2000/svg">
<path fill-rule="evenodd" clip-rule="evenodd" d="M32.4222 16.1728C29.3858 18.4135 24.9834 19.6058 21.1934 19.6058C15.8803 19.6058 11.0969 17.6419 7.47575 14.373C7.19176 14.1166 7.4446 13.7655 7.7873 13.9644C11.6936 16.2375 16.5238 17.6059 21.5121 17.6059C24.878 17.6059 28.577 16.9073 31.9812 15.4634C32.4941 15.2466 32.9243 15.8025 32.4222 16.1728Z" fill="#FF9900"/>
<path fill-rule="evenodd" clip-rule="evenodd" d="M33.6852 14.7301C33.297 14.2328 31.1186 14.4941 30.1396 14.6115C29.8436 14.6474 29.7969 14.3874 30.0641 14.2005C31.8028 12.9795 34.6498 13.3318 34.9817 13.7404C35.3149 14.1526 34.8943 17.008 33.2658 18.3704C33.0154 18.5801 32.777 18.4687 32.8884 18.1919C33.2539 17.2776 34.0747 15.2286 33.6852 14.7301Z" fill="#FF9900"/>
<path fill-rule="evenodd" clip-rule="evenodd" d="M30.227 5.57185V4.38438C30.2282 4.20344 30.3636 4.08362 30.5278 4.08362H35.848C36.0181 4.08362 36.1547 4.20704 36.1547 4.38318V5.4017C36.1535 5.57305 36.0098 5.79473 35.7545 6.14941L32.9986 10.0845C34.0219 10.0605 35.1039 10.2139 36.0325 10.7363C36.2422 10.8538 36.2985 11.0287 36.3153 11.2V12.4654C36.3153 12.6391 36.1248 12.8417 35.9235 12.7362C34.2867 11.8783 32.113 11.7848 30.3025 12.747C30.1179 12.8452 29.9238 12.6463 29.9238 12.4714V11.2671C29.9238 11.0742 29.9274 10.7447 30.1215 10.4511L33.3137 5.87021H30.5337C30.3648 5.87141 30.2282 5.75039 30.227 5.57185Z" fill="#FF9900"/>
<path fill-rule="evenodd" clip-rule="evenodd" d="M40.7506 5.62692C39.5571 5.62692 39.4816 7.25176 39.4816 8.26668C39.4816 9.2804 39.4661 11.448 40.7362 11.448C41.9908 11.448 42.0507 9.69979 42.0507 8.63454C42.0507 7.93596 42.0207 7.09598 41.8087 6.43215C41.6265 5.85459 41.2635 5.62692 40.7506 5.62692ZM40.7362 3.9314C43.1387 3.9314 44.4376 5.99479 44.4376 8.61657C44.4376 11.1509 43.0033 13.1615 40.7362 13.1615C38.3793 13.1615 37.0947 11.0982 37.0947 8.5291C37.0947 5.94207 38.3936 3.9314 40.7362 3.9314Z" fill="#FF9900"/>
<path fill-rule="evenodd" clip-rule="evenodd" d="M27.6188 12.965C27.5122 13.0608 27.3169 13.0644 27.2366 13.0021C26.6842 12.5743 26.3092 11.9237 26.3092 11.9237C25.42 12.8284 24.791 13.1004 23.6406 13.1004C22.2782 13.1004 21.2178 12.2592 21.2178 10.578C21.2178 9.26476 21.9295 8.37086 22.9433 7.9323C23.8216 7.54647 25.0474 7.47696 25.9868 7.37152C25.9868 7.37152 26.0659 6.3578 25.7903 5.98754C25.577 5.70115 25.2151 5.56695 24.882 5.56695C24.2817 5.56455 23.7018 5.89048 23.5867 6.51956C23.5544 6.6993 23.4214 6.85028 23.2812 6.8347L21.7318 6.66694C21.6132 6.65376 21.4514 6.53035 21.4898 6.32784C21.8505 4.42501 23.5687 3.84985 25.1097 3.84985C25.897 3.84985 26.9263 4.05955 27.5469 4.65628C28.3342 5.392 28.2587 6.37337 28.2587 7.44221V9.96334C28.2587 10.7218 28.5738 11.055 28.8698 11.4636C28.9729 11.6109 28.9968 11.7859 28.865 11.8937C28.5331 12.1705 27.6188 12.965 27.6188 12.965ZM25.9868 9.01912C25.9868 9.6506 26.0024 10.1754 25.6849 10.7362C25.4272 11.1916 25.0186 11.4719 24.5645 11.4719C23.9438 11.4719 23.5807 10.9986 23.5807 10.2977C23.5807 8.91966 24.8173 8.66923 25.988 8.66923V9.01912H25.9868Z" fill="#FF9900"/>
<path fill-rule="evenodd" clip-rule="evenodd" d="M6.40107 12.965C6.29443 13.0608 6.09791 13.0644 6.01883 13.0021C5.46523 12.5743 5.09138 11.9237 5.09138 11.9237C4.20228 12.8284 3.57319 13.1004 2.42287 13.1004C1.06045 13.1004 0 12.2592 0 10.578C0 9.26476 0.711765 8.37086 1.72549 7.9323C2.60381 7.54647 3.82962 7.47696 4.76905 7.37152C4.76905 7.37152 4.84694 6.3578 4.57254 5.98754C4.35925 5.70115 3.99738 5.56695 3.66426 5.56695C3.06394 5.56455 2.48398 5.89048 2.36895 6.51956C2.3366 6.6993 2.20359 6.85028 2.06339 6.8347L0.512852 6.66694C0.394225 6.65376 0.232462 6.53035 0.270806 6.32784C0.631481 4.42501 2.34977 3.84985 3.89073 3.84985C4.67798 3.84985 5.70728 4.05955 6.32798 4.65628C7.11523 5.392 7.03974 6.37337 7.03974 7.44221V9.96334C7.03974 10.7218 7.35488 11.055 7.65085 11.4636C7.7539 11.6109 7.77786 11.7859 7.64605 11.8937C7.31534 12.1705 6.40107 12.965 6.40107 12.965ZM4.76905 9.01912C4.76905 9.6506 4.78463 10.1754 4.46589 10.7362C4.20827 11.1916 3.79966 11.4719 3.34552 11.4719C2.72483 11.4719 2.36176 10.9986 2.36176 10.2977C2.36176 8.91966 3.59836 8.66923 4.76905 8.66923V9.01912Z" fill="#FF9900"/>
<path fill-rule="evenodd" clip-rule="evenodd" d="M11.1342 8.28353C11.1342 7.32253 11.0886 5.99367 12.2521 5.99367C13.4001 5.99367 13.2491 7.35728 13.2491 8.28353L13.2503 12.6871C13.2503 12.8465 13.3785 12.9747 13.5415 12.9855H15.1579C15.3304 12.9855 15.4694 12.8525 15.4694 12.6871V8.28353C15.4694 7.81141 15.4539 7.11284 15.6204 6.69225C15.787 6.27286 16.1944 6.01044 16.5874 6.01044C17.0559 6.01044 17.4178 6.16741 17.5388 6.727C17.6143 7.05891 17.5844 7.93364 17.5844 8.28233V12.6859C17.5844 12.8453 17.7126 12.9735 17.8743 12.9843H19.4908C19.6633 12.9843 19.8035 12.8513 19.8035 12.6859L19.8047 7.44355C19.8047 6.55205 19.9102 5.53833 19.3961 4.83855C18.9432 4.20947 18.2027 3.92908 17.5232 3.92908C16.5718 3.92908 15.6803 4.41916 15.2873 5.46763C14.8344 4.41916 14.1993 3.92908 13.1868 3.92908C12.1898 3.92908 11.4493 4.41916 11.0563 5.46763H11.0263V4.40718C11.0263 4.24062 10.8909 4.10522 10.7244 4.10522H9.21456C9.048 4.10522 8.9126 4.24062 8.9126 4.40718V12.6823C8.9126 12.8489 9.048 12.9843 9.21456 12.9843H10.831C10.9976 12.9843 11.133 12.8489 11.133 12.6823L11.1342 8.28353Z" fill="#FF9900"/>
<path fill-rule="evenodd" clip-rule="evenodd" d="M47.8678 12.6834C47.8678 12.85 47.7324 12.9854 47.5659 12.9854H45.9494C45.7829 12.9854 45.6475 12.85 45.6475 12.6834V4.4083C45.6475 4.24175 45.7829 4.10634 45.9494 4.10634H47.4436C47.6186 4.10634 47.7456 4.24773 47.7456 4.3424V5.60895H47.7768C48.2297 4.47301 48.8648 3.9314 49.9827 3.9314C50.7077 3.9314 51.4182 4.19382 51.8712 4.91037C52.2942 5.5742 52.2942 6.69337 52.2942 7.4974V12.7242C52.2762 12.8716 52.1444 12.9854 51.9838 12.9854H50.3614C50.2116 12.9758 50.0906 12.8656 50.0738 12.7242L50.0762 7.7047C50.0762 6.02594 49.4327 5.97562 49.0613 5.97562C48.6299 5.97562 48.2824 6.31233 48.1302 6.62747C47.9038 7.13433 47.8678 7.65317 47.8678 8.21276V12.6834Z" fill="#FF9900"/>
<path d="M60.3898 13.1555C59.6193 13.1555 58.9531 12.9626 58.3923 12.5767C57.8315 12.1909 57.4025 11.6541 57.1042 10.9651C56.8058 10.2761 56.6572 9.47567 56.6572 8.56499C56.6572 7.59561 56.8154 6.75204 57.1305 6.03308C57.4457 5.31533 57.889 4.76653 58.4618 4.38668C59.0334 4.00684 59.6936 3.81751 60.4413 3.81751C61.4335 3.81751 62.3274 4.14463 63.1218 4.79888V0.34977C63.1218 0.11611 63.238 -0.00012207 63.4717 -0.00012207H64.5058C64.7394 -0.00012207 64.8557 0.117308 64.8557 0.34977V12.6127C64.8557 12.8463 64.7382 12.9626 64.5058 12.9626H63.7353C63.6299 12.9626 63.546 12.9398 63.4813 12.8931C63.4166 12.8464 63.3674 12.7529 63.3327 12.6127L63.1925 12.0519C62.8067 12.4018 62.3693 12.6738 61.8792 12.8667C61.3879 13.0596 60.8918 13.1555 60.3898 13.1555ZM60.9146 11.7547C61.6384 11.7547 62.3741 11.4863 63.1218 10.9483V5.99114C62.7599 5.72274 62.3945 5.52742 62.0266 5.404C61.6587 5.28058 61.2525 5.21947 60.8092 5.21947C59.2203 5.21947 58.427 6.31707 58.427 8.51347C58.427 10.6739 59.2562 11.7547 60.9146 11.7547Z" fill="#FF9900"/>
<path d="M71.181 13.2261C69.7443 13.2261 68.6587 12.8295 67.9229 12.035C67.1872 11.2406 66.8193 10.0675 66.8193 8.51336C66.8193 7.02993 67.1872 5.8772 67.9229 5.054C68.6587 4.2308 69.6868 3.8186 71.006 3.8186C72.1156 3.8186 72.9688 4.13135 73.5643 4.75564C74.1598 5.38113 74.4582 6.26544 74.4582 7.40977C74.4582 7.78362 74.4294 8.16347 74.3707 8.54811C74.3468 8.6883 74.3096 8.78177 74.2569 8.8285C74.2042 8.87524 74.1191 8.898 74.0029 8.898H68.5017C68.5244 9.90213 68.7737 10.6439 69.2458 11.1232C69.7191 11.6025 70.4512 11.8409 71.4446 11.8409C71.7945 11.8409 72.13 11.8181 72.4523 11.7714C72.7735 11.7247 73.1797 11.6252 73.6697 11.473C73.7512 11.4503 73.8219 11.4287 73.8794 11.4119C73.9382 11.394 73.9897 11.3856 74.0376 11.3856C74.1898 11.3856 74.2653 11.491 74.2653 11.7007V12.1908C74.2653 12.343 74.2413 12.4508 74.1958 12.5143C74.1491 12.579 74.0496 12.6461 73.8974 12.7156C73.5475 12.8678 73.1293 12.99 72.6452 13.0835C72.1588 13.1794 71.6711 13.2261 71.181 13.2261ZM72.8621 7.74288C72.8741 7.64942 72.8801 7.49724 72.8801 7.28755C72.8801 6.57579 72.7135 6.03777 72.3804 5.6759C72.0473 5.31402 71.5596 5.13309 70.9174 5.13309C70.1816 5.13309 69.6089 5.35237 69.2003 5.78973C68.7917 6.22829 68.558 6.87894 68.4993 7.74288H72.8621Z" fill="#FF9900"/>
<path d="M79.1159 12.9637C78.9518 12.9637 78.8331 12.941 78.7565 12.8942C78.6798 12.8475 78.6019 12.7133 78.5204 12.4916L75.4193 4.71375C75.3954 4.64425 75.369 4.57356 75.3402 4.50406C75.3115 4.43456 75.2959 4.36986 75.2959 4.31114C75.2959 4.15896 75.3834 4.08347 75.5583 4.08347H76.5924C76.7673 4.08347 76.8908 4.10744 76.9603 4.15297C77.0298 4.1997 77.1065 4.33391 77.1879 4.55558L79.5892 11.3868L81.9893 4.55439C82.0708 4.33271 82.1475 4.1985 82.217 4.15177C82.2865 4.10504 82.4099 4.08228 82.5849 4.08228H83.5483C83.7232 4.08228 83.8107 4.15896 83.8107 4.30994C83.8107 4.36866 83.7963 4.43216 83.7664 4.50286C83.7376 4.57236 83.7112 4.64306 83.6873 4.71255L80.6042 12.4904C80.5227 12.7121 80.4436 12.8463 80.3681 12.893C80.2926 12.9398 80.1728 12.9625 80.0086 12.9625H79.1159V12.9637Z" fill="#FF9900"/>
<path d="M88.8914 13.2261C87.4547 13.2261 86.3691 12.8295 85.6334 12.035C84.8976 11.2406 84.5298 10.0675 84.5298 8.51336C84.5298 7.02993 84.8976 5.8772 85.6334 5.054C86.3691 4.2308 87.3972 3.8186 88.7165 3.8186C89.8261 3.8186 90.6792 4.13135 91.2747 4.75564C91.8703 5.38113 92.1687 6.26544 92.1687 7.40977C92.1687 7.78362 92.1399 8.16347 92.0812 8.54811C92.0572 8.6883 92.0201 8.78177 91.9673 8.8285C91.9146 8.87524 91.8295 8.898 91.7133 8.898H86.2121C86.2349 9.90213 86.4841 10.6439 86.9562 11.1232C87.4296 11.6025 88.1617 11.8409 89.155 11.8409C89.5049 11.8409 89.8404 11.8181 90.1628 11.7714C90.4839 11.7247 90.8901 11.6252 91.3802 11.473C91.4617 11.4503 91.5324 11.4287 91.5899 11.4119C91.6486 11.394 91.7001 11.3856 91.7481 11.3856C91.9002 11.3856 91.9757 11.491 91.9757 11.7007V12.1908C91.9757 12.343 91.9518 12.4508 91.9062 12.5143C91.8595 12.579 91.76 12.6461 91.6079 12.7156C91.258 12.8678 90.8398 12.99 90.3557 13.0835C89.8704 13.1794 89.3827 13.2261 88.8914 13.2261ZM90.5738 7.74288C90.5858 7.64942 90.5917 7.49724 90.5917 7.28755C90.5917 6.57579 90.4252 6.03777 90.0921 5.6759C89.759 5.31402 89.2713 5.13309 88.629 5.13309C87.8933 5.13309 87.3205 5.35237 86.9119 5.78973C86.5033 6.22829 86.2696 6.87894 86.2109 7.74288H90.5738Z" fill="#FF9900"/>
<path d="M95.986 13.0512C95.3665 13.0512 94.8932 12.8726 94.5672 12.5167C94.2401 12.1608 94.0771 11.6492 94.0771 10.9842V0.350864C94.0771 0.117205 94.1934 0.000976562 94.427 0.000976562H95.4599C95.6936 0.000976562 95.8098 0.118403 95.8098 0.350864V10.8799C95.8098 11.1483 95.8649 11.3436 95.9764 11.4671C96.0866 11.5893 96.2711 11.6516 96.5288 11.6516C96.5983 11.6516 96.6714 11.6456 96.7481 11.6336C96.8235 11.6216 96.8906 11.6156 96.9494 11.6156C97.0656 11.6156 97.1447 11.6444 97.1854 11.7031C97.2262 11.7618 97.2465 11.8493 97.2465 11.9655V12.5263C97.2465 12.6437 97.2202 12.7336 97.1674 12.7983C97.1147 12.863 97.0249 12.9122 96.8954 12.9469C96.6055 13.0152 96.3011 13.0512 95.986 13.0512Z" fill="#FF9900"/>
<path d="M102.678 13.2261C101.347 13.2261 100.307 12.8115 99.5605 11.9823C98.8128 11.1531 98.439 9.9968 98.439 8.51336C98.439 7.04191 98.8128 5.89158 99.5605 5.06239C100.308 4.2332 101.347 3.8186 102.678 3.8186C104.01 3.8186 105.049 4.2332 105.796 5.06239C106.544 5.89158 106.918 7.04191 106.918 8.51336C106.918 9.9968 106.544 11.1531 105.796 11.9823C105.05 12.8115 104.01 13.2261 102.678 13.2261ZM102.678 11.8241C104.325 11.8241 105.148 10.7205 105.148 8.51336C105.148 6.31816 104.325 5.21936 102.678 5.21936C101.032 5.21936 100.209 6.31696 100.209 8.51336C100.209 10.7205 101.032 11.8241 102.678 11.8241Z" fill="#FF9900"/>
<path d="M109.23 16.5716C108.997 16.5716 108.88 16.4542 108.88 16.2217V4.43211C108.88 4.19845 108.997 4.08222 109.23 4.08222H110.001C110.234 4.08222 110.369 4.19965 110.403 4.43211L110.491 4.99289C111.379 4.21043 112.365 3.8186 113.452 3.8186C114.584 3.8186 115.478 4.2308 116.132 5.054C116.786 5.8772 117.114 6.99637 117.114 8.40912C117.114 9.84582 116.768 10.9961 116.079 11.8601C115.39 12.724 114.474 13.1566 113.329 13.1566C112.279 13.1566 111.373 12.8127 110.614 12.1225V16.2217C110.614 16.4554 110.497 16.5716 110.264 16.5716H109.23ZM112.926 11.7546C114.537 11.7546 115.344 10.669 115.344 8.49659C115.344 7.387 115.148 6.5638 114.757 6.02698C114.365 5.49017 113.767 5.22056 112.96 5.22056C112.131 5.22056 111.349 5.48897 110.613 6.02698V10.9147C111.373 11.4742 112.143 11.7546 112.926 11.7546Z" fill="#FF9900"/>
<path d="M122.982 13.2261C121.545 13.2261 120.459 12.8295 119.724 12.035C118.988 11.2406 118.62 10.0675 118.62 8.51336C118.62 7.02993 118.988 5.8772 119.724 5.054C120.459 4.2308 121.488 3.8186 122.807 3.8186C123.916 3.8186 124.77 4.13135 125.365 4.75564C125.961 5.38113 126.259 6.26544 126.259 7.40977C126.259 7.78362 126.23 8.16347 126.171 8.54811C126.148 8.6883 126.11 8.78177 126.058 8.8285C126.005 8.87524 125.92 8.898 125.804 8.898H120.302C120.325 9.90213 120.574 10.6439 121.047 11.1232C121.52 11.6025 122.252 11.8409 123.245 11.8409C123.595 11.8409 123.931 11.8181 124.253 11.7714C124.574 11.7247 124.98 11.6252 125.471 11.473C125.552 11.4503 125.623 11.4287 125.68 11.4119C125.739 11.394 125.79 11.3856 125.838 11.3856C125.991 11.3856 126.066 11.491 126.066 11.7007V12.1908C126.066 12.343 126.042 12.4508 125.997 12.5143C125.95 12.579 125.85 12.6461 125.698 12.7156C125.348 12.8678 124.93 12.99 124.446 13.0835C123.96 13.1794 123.473 13.2261 122.982 13.2261ZM124.664 7.74288C124.676 7.64942 124.682 7.49724 124.682 7.28755C124.682 6.57579 124.516 6.03777 124.182 5.6759C123.849 5.31402 123.362 5.13309 122.719 5.13309C121.984 5.13309 121.411 5.35237 121.002 5.78973C120.594 6.22829 120.36 6.87894 120.301 7.74288H124.664Z" fill="#FF9900"/>
<path d="M128.517 12.9637C128.284 12.9637 128.167 12.8475 128.167 12.6139V4.43218C128.167 4.19852 128.284 4.08229 128.517 4.08229H129.288C129.404 4.08229 129.495 4.10626 129.56 4.15179C129.625 4.19852 129.668 4.28599 129.692 4.41421L129.814 5.39558C130.129 5.05647 130.427 4.78806 130.708 4.58915C130.988 4.39024 131.277 4.24525 131.575 4.15179C131.874 4.05833 132.191 4.0116 132.53 4.0116C132.671 4.0116 132.811 4.01759 132.951 4.02957C133.15 4.05353 133.249 4.15778 133.249 4.34471V5.29013C133.249 5.49983 133.144 5.60527 132.934 5.60527C132.829 5.60527 132.727 5.59928 132.627 5.5873C132.528 5.57532 132.42 5.56933 132.304 5.56933C131.369 5.56933 130.57 5.84972 129.904 6.4105V12.6115C129.904 12.8451 129.786 12.9614 129.554 12.9614H128.517V12.9637Z" fill="#FF9900"/>
</svg>
