<svg xmlns="http://www.w3.org/2000/svg" fill="none" viewBox="10 78.48 179 42.04">
<g clip-path="url(#clip0_22885_36660)">
<path d="M10 110.62H29.8549V104.772H17.2999V99.3259H27.4089V93.3255H17.2999V88.185H29.8549V82.3184H10V110.62Z" fill="#002E22"/>
<path d="M54.5991 88.5713H45.8468L42.9422 93.8838L39.8846 88.5713H30.884L38.2221 99.2345L30.4062 110.624H39.1585L42.6364 104.7L46.0953 110.624H55.0768L47.261 99.2345L54.5991 88.5713Z" fill="#002E22"/>
<path d="M68.3586 88.0361C65.9508 88.0361 63.8487 89.0107 62.2817 90.9026V88.5712H55.5742V120.007H62.7403V108.98C64.0398 110.318 66.0081 111.159 68.3204 111.159C74.1679 111.159 78.2383 106.649 78.2383 99.5975C78.2383 92.546 74.3972 88.0361 68.3586 88.0361ZM66.7916 105.311C64.1162 105.311 62.511 103.209 62.511 99.5975C62.511 95.9857 64.1162 93.8837 66.7916 93.8837C69.4669 93.8837 71.0721 95.9475 71.0721 99.5975C71.0912 103.267 69.486 105.311 66.7916 105.311Z" fill="#002E22"/>
<path d="M90.8317 105.579C88.6532 105.579 86.9906 104.318 86.5893 101.108H101.82V100.171C101.82 93.2918 97.9787 88.0176 90.5259 88.0176C85.2517 88.0176 79.1748 90.884 79.1748 99.5789C79.1748 106.63 83.7229 111.14 90.7935 111.14C94.9976 111.14 100.215 109.631 101.877 103.095H94.6345C94.3096 104.337 93.3733 105.579 90.8317 105.579ZM90.5259 93.2918C92.5898 93.2918 93.9657 94.4575 94.195 96.9991H86.7422C87.2582 94.19 88.8252 93.2918 90.5259 93.2918Z" fill="#002E22"/>
<path d="M115.751 88.0361C113.286 88.0361 111.107 89.1063 109.674 91.1701V88.5712H102.967V110.643H110.133V98.3553C110.133 95.4125 111.643 94.0748 113.611 94.0748C115.713 94.0748 116.955 94.9729 116.955 98.3171V110.643H124.102V97.782C124.102 90.807 121.293 88.0361 115.751 88.0361Z" fill="#002E22"/>
<path d="M150.185 78.5361C148.006 78.5361 146.439 80.1413 146.439 82.1861C146.439 84.2308 148.006 85.8933 150.185 85.8933C152.363 85.8933 153.969 84.2499 153.969 82.1861C153.969 80.1413 152.421 78.5361 150.185 78.5361Z" fill="#002E22"/>
<path d="M153.817 88.6084H146.689V110.623H153.817V88.6084Z" fill="#002E22"/>
<path d="M137.285 96.884L135.508 96.4827C133.635 96.0814 132.967 95.2597 132.967 94.3997C132.967 93.1767 133.999 92.3932 135.642 92.3932C137.744 92.3932 138.852 93.0812 138.852 95.1068H145.006C144.872 90.4631 142.158 87.7305 135.317 87.7305C129.412 87.7305 125.896 89.9281 125.896 94.8393C125.896 98.7185 128.514 100.477 134.495 101.833L136.273 102.235C138.145 102.636 138.814 103.515 138.814 104.375C138.814 105.598 137.744 106.133 135.871 106.133C133.406 106.133 132.298 105.235 131.992 103.209H125.036C125.437 108.522 129.145 111.178 135.623 111.178C142.101 111.178 145.904 108.789 145.904 103.878C145.885 99.9797 143.286 98.2408 137.285 96.884Z" fill="#002E22"/>
<path d="M181.726 88.6086L177.713 102.081L173.796 88.6086H164.547V87.9206C164.547 86.1243 165.884 84.3089 167.967 84.3089H168.98V78.4805H167.509C161.393 78.6142 157.38 82.9139 157.38 88.3219V88.6086H154.705V95.1059H157.38V110.623H164.508V95.1059H168.521L173.872 110.05L172.974 112.362C172.305 114.063 171.541 114.54 170.069 114.54C169.305 114.54 168.56 114.54 167.489 114.235L167.05 120.082C168.12 120.388 169.458 120.522 171.158 120.522C175.439 120.522 177.675 118.687 179.815 113.031L188.988 88.6086H181.726Z" fill="#002E22"/>
</g>
<defs>
<clipPath id="clip0_22885_36660">
<rect width="179" height="42.0412" fill="white" transform="translate(10 78.4775)"/>
</clipPath>
</defs>
</svg>
