<svg width="24" height="25" viewBox="0 0 24 25" fill="none" xmlns="http://www.w3.org/2000/svg">
<g id="Icon / github">
<g id="Union">
<path d="M5 2.5H9V4.5H7V6.5H5V2.5Z" fill="#8232FF"/>
<path d="M5 12.5H3V6.5H5V12.5Z" fill="#8232FF"/>
<path d="M7 14.5H5V12.5H7V14.5Z" fill="#8232FF"/>
<path fill-rule="evenodd" clip-rule="evenodd" d="M9 16.5V14.5H7V16.5H3V14.5H1V16.5H3V18.5H7V22.5H9V18.5H11V16.5H9ZM9 16.5V18.5H7V16.5H9Z" fill="#8232FF"/>
<path d="M15 4.5V6.5H9V4.5H15Z" fill="#8232FF"/>
<path d="M19 6.5H17V4.5H15V2.5H19V6.5Z" fill="#8232FF"/>
<path d="M19 12.5V6.5H21V12.5H19Z" fill="#8232FF"/>
<path d="M17 14.5V12.5H19V14.5H17Z" fill="#8232FF"/>
<path d="M15 16.5V14.5H17V16.5H15Z" fill="#8232FF"/>
<path d="M15 18.5H13V16.5H15V18.5Z" fill="#8232FF"/>
<path d="M15 18.5H17V22.5H15V18.5Z" fill="#8232FF"/>
</g>
</g>
</svg>
