<svg width="65" height="64" viewBox="0 0 65 64" fill="none" xmlns="http://www.w3.org/2000/svg">
<g opacity="0.8" clip-path="url(#clip0_9748_92870)">
<path d="M14.9541 8.71131e-05H50.4041C52.3339 -0.0327143 54.2499 0.330311 56.0339 1.06676C57.8179 1.80321 59.432 2.89745 60.7767 4.28196C62.1214 5.66647 63.1681 7.31186 63.8521 9.11659C64.5362 10.9213 64.8432 12.8471 64.7541 14.7751V49.3501C64.8222 51.269 64.4991 53.1818 63.8043 54.9718C63.1095 56.7619 62.0577 58.3918 60.7129 59.7623C59.3681 61.1329 57.7584 62.2154 55.9818 62.9439C54.2052 63.6725 52.299 64.0318 50.3791 64.0001L14.3291 63.9751C10.6899 63.7833 7.26243 62.2045 4.75146 59.5633C2.24049 56.9222 0.836838 53.4194 0.829102 49.7751V14.2251C0.828597 10.6101 2.20681 7.13109 4.68277 4.49719C7.15873 1.86328 10.546 0.272839 14.1541 0.0500871C14.4041 8.71122e-05 14.6791 8.71131e-05 14.9541 8.71131e-05Z" fill="url(#paint0_linear_9748_92870)"/>
<path d="M54.7291 52.35C53.9874 51.1615 52.9983 50.1468 51.8291 49.375C50.8291 48.7 49.6541 48.275 48.4541 48.225C47.6041 48.175 46.7541 48.325 45.9541 48.625C45.1521 48.9218 44.3748 49.2812 43.6292 49.7C42.7542 50.15 41.8791 50.6 40.9541 50.975C39.8541 51.425 38.7041 51.775 37.5291 52.025C36.0613 52.2905 34.5705 52.4078 33.0791 52.375C25.9609 52.2382 19.122 49.5806 13.7791 44.875C11.6409 43.0128 9.72791 40.9068 8.07915 38.6C7.80592 38.2237 7.55547 37.8313 7.32915 37.425L0.729148 30.3V14.175C0.725861 12.3147 1.08944 10.472 1.79907 8.75235C2.5087 7.03271 3.55046 5.46987 4.86474 4.15327C6.17901 2.83668 7.74001 1.79216 9.4584 1.07949C11.1768 0.366825 13.0188 -2.90349e-06 14.8791 0L27.5041 0L36.8541 9.5C57.9541 23.85 51.1292 39.675 51.1292 39.675C51.1292 39.675 57.1292 46.425 54.7291 52.35Z" fill="url(#paint1_linear_9748_92870)"/>
<path d="M36.9041 9.5C58.0041 23.85 51.1791 39.675 51.1791 39.675C51.1791 39.675 57.1791 46.45 54.7541 52.375C54.7541 52.375 52.2791 48.225 48.1291 48.225C44.1291 48.225 41.7791 52.375 33.7291 52.375C15.8041 52.375 7.3291 37.4 7.3291 37.4C23.4791 48.025 34.5041 40.5 34.5041 40.5C27.2291 36.275 11.7541 16.075 11.7541 16.075C25.2291 27.55 31.0541 30.575 31.0541 30.575C27.5791 27.7 17.8291 13.65 17.8291 13.65C25.6291 21.55 41.1291 32.575 41.1291 32.575C45.5291 20.375 36.9041 9.5 36.9041 9.5Z" fill="white"/>
</g>
<defs>
<linearGradient id="paint0_linear_9748_92870" x1="38.8041" y1="-2.24991" x2="26.7041" y2="66.3251" gradientUnits="userSpaceOnUse">
<stop stop-color="#FAAE42"/>
<stop offset="1" stop-color="#EF3E31"/>
</linearGradient>
<linearGradient id="paint1_linear_9748_92870" x1="33.3791" y1="1.025" x2="24.5291" y2="51.225" gradientUnits="userSpaceOnUse">
<stop stop-color="#E39F3A"/>
<stop offset="1" stop-color="#D33929"/>
</linearGradient>
<clipPath id="clip0_9748_92870">
<rect width="64" height="64" fill="white" transform="translate(0.729126)"/>
</clipPath>
</defs>
</svg>
