<svg width="22" height="64" viewBox="0 0 22 64" fill="none" xmlns="http://www.w3.org/2000/svg">
<path d="M21.5 0.81851V6.78788C20.8473 6.66944 20.185 6.60912 19.521 6.60782H19.52C18.0259 6.60782 16.818 6.92458 16.0032 7.8181C15.1998 8.69897 14.8805 10.0318 14.8805 11.8093V23.3596C14.8805 25.7599 14.6048 27.5261 13.9544 28.8161C13.3186 30.0769 12.3018 30.9274 10.6985 31.4547L10.3547 31.5678V31.9297V32.0777V32.4407L10.6997 32.5531C12.2952 33.0732 13.3117 33.919 13.9491 35.1794C14.6012 36.4688 14.8805 38.2387 14.8805 40.6478V52.1981C14.8805 53.9756 15.1998 55.3084 16.0032 56.1893C16.818 57.0828 18.0259 57.3996 19.52 57.3996H19.521C20.185 57.3983 20.8473 57.338 21.5 57.2195V63.1815C20.167 63.3852 18.8209 63.4916 17.4723 63.5C13.7046 63.4996 11.038 62.4265 9.31153 60.6623C7.58237 58.8953 6.72947 56.3666 6.72947 53.3235V40.3036C6.72947 38.6234 6.50444 37.2924 5.71725 36.3973C4.91425 35.4841 3.64385 35.1502 1.89865 35.1502H0.5V28.9535H1.89865C3.64385 28.9535 4.91425 28.6195 5.71725 27.7064C6.50444 26.8113 6.72947 25.4803 6.72947 23.8001V10.6765C6.72947 7.60959 7.60232 5.0811 9.34167 3.31987C11.079 1.56064 13.7468 0.500291 17.4726 0.5C18.8211 0.508363 20.1671 0.614837 21.5 0.81851Z" stroke="white" stroke-opacity="0.3"/>
</svg>
