<svg width="65" height="64" viewBox="0 0 65 64" fill="none" xmlns="http://www.w3.org/2000/svg">
<g opacity="0.8" clip-path="url(#clip0_9748_92884)">
<mask id="mask0_9748_92884" style="mask-type:alpha" maskUnits="userSpaceOnUse" x="0" y="0" width="65" height="64">
<path d="M32.1873 64C49.8604 64 64.1873 49.6731 64.1873 32C64.1873 14.3269 49.8604 0 32.1873 0C14.5141 0 0.187256 14.3269 0.187256 32C0.187256 49.6731 14.5141 64 32.1873 64Z" fill="black"/>
</mask>
<g mask="url(#mask0_9748_92884)">
<path d="M32.1872 62.9336C49.2712 62.9336 63.1206 49.0842 63.1206 32.0002C63.1206 14.9162 49.2712 1.06689 32.1872 1.06689C15.1032 1.06689 1.25391 14.9162 1.25391 32.0002C1.25391 49.0842 15.1032 62.9336 32.1872 62.9336Z" fill="black" stroke="white" stroke-width="2.13333"/>
<path d="M53.3456 56.0073L24.771 19.2002H19.3872V44.7895H23.6943V24.6699L49.9646 58.6118C51.15 57.8185 52.2793 56.9478 53.3456 56.0073Z" fill="url(#paint0_linear_9748_92884)"/>
<path d="M45.3428 19.2002H41.0762V44.8002H45.3428V19.2002Z" fill="url(#paint1_linear_9748_92884)"/>
</g>
</g>
<defs>
<linearGradient id="paint0_linear_9748_92884" x1="38.9428" y1="41.4224" x2="51.565" y2="57.0669" gradientUnits="userSpaceOnUse">
<stop stop-color="white"/>
<stop offset="1" stop-color="white" stop-opacity="0"/>
</linearGradient>
<linearGradient id="paint1_linear_9748_92884" x1="43.2095" y1="19.2002" x2="43.138" y2="38.0002" gradientUnits="userSpaceOnUse">
<stop stop-color="white"/>
<stop offset="1" stop-color="white" stop-opacity="0"/>
</linearGradient>
<clipPath id="clip0_9748_92884">
<rect width="64" height="64" fill="white" transform="translate(0.187256)"/>
</clipPath>
</defs>
</svg>
