<svg width="57" height="64" viewBox="0 0 57 64" fill="none" xmlns="http://www.w3.org/2000/svg">
<g opacity="0.8" clip-path="url(#clip0_9748_92874)">
<path d="M29.9727 0.401101C29.0224 -0.134351 27.8941 -0.134351 26.9438 0.401101L1.94291 14.8601C0.992658 15.3955 0.458252 16.407 0.458252 17.4779V46.455C0.458252 47.5261 1.05216 48.5376 1.94291 49.0731L26.9438 63.5318C27.8941 64.0675 29.0224 64.0675 29.9727 63.5318L54.9736 49.0731C55.9238 48.5376 56.4583 47.5261 56.4583 46.455V17.4779C56.4583 16.407 55.8643 15.3955 54.9736 14.8601L29.9727 0.401101Z" fill="url(#paint0_linear_9748_92874)"/>
<mask id="mask0_9748_92874" style="mask-type:luminance" maskUnits="userSpaceOnUse" x="0" y="-1" width="57" height="65">
<path d="M29.9727 0.401101C29.0224 -0.134351 27.8941 -0.134351 26.9438 0.401101L1.94291 14.8601C0.992658 15.3955 0.458252 16.407 0.458252 17.4779V46.455C0.458252 47.5261 1.05216 48.5376 1.94291 49.0731L26.9438 63.5318C27.8941 64.0675 29.0224 64.0675 29.9727 63.5318L54.9736 49.0731C55.9238 48.5376 56.4583 47.5261 56.4583 46.455V17.4779C56.4583 16.407 55.8643 15.3955 54.9736 14.8601L29.9727 0.401101Z" fill="white"/>
</mask>
<g mask="url(#mask0_9748_92874)">
<path d="M55.0331 14.8604L29.913 0.401917C29.6754 0.283122 29.3786 0.164109 29.141 0.104492L0.992676 48.4192C1.23024 48.7167 1.5273 48.9547 1.82393 49.1333L26.9439 63.5921C27.6566 64.0085 28.488 64.1275 29.26 63.8895L55.6861 15.4555C55.5078 15.2175 55.2705 15.0391 55.0329 14.8607L55.0331 14.8604Z" fill="url(#paint1_linear_9748_92874)"/>
</g>
<mask id="mask1_9748_92874" style="mask-type:luminance" maskUnits="userSpaceOnUse" x="0" y="-1" width="57" height="65">
<path d="M29.9727 0.401101C29.0224 -0.134351 27.8941 -0.134351 26.9438 0.401101L1.94291 14.8601C0.992658 15.3955 0.458252 16.407 0.458252 17.4779V46.455C0.458252 47.5261 1.05216 48.5376 1.94291 49.0731L26.9438 63.5318C27.8941 64.0675 29.0224 64.0675 29.9727 63.5318L54.9736 49.0731C55.9238 48.5376 56.4583 47.5261 56.4583 46.455V17.4779C56.4583 16.407 55.8643 15.3955 54.9736 14.8601L29.9727 0.401101Z" fill="white"/>
</mask>
<g mask="url(#mask1_9748_92874)">
<path d="M55.0923 49.0732C55.805 48.6568 56.3394 47.9427 56.577 47.1692L29.0223 0.0444074C28.3097 -0.0746062 27.5377 -0.015209 26.8845 0.401229L1.94263 14.8008L28.8443 63.9488C29.2004 63.8892 29.6163 63.7702 29.9726 63.5916L55.0923 49.0734V49.0732Z" fill="url(#paint2_linear_9748_92874)"/>
</g>
</g>
<defs>
<linearGradient id="paint0_linear_9748_92874" x1="3818.99" y1="1118.01" x2="1070.93" y2="5427.46" gradientUnits="userSpaceOnUse">
<stop stop-color="#41873F"/>
<stop offset="0.3288" stop-color="#418B3D"/>
<stop offset="0.6352" stop-color="#419637"/>
<stop offset="0.9319" stop-color="#3FA92D"/>
<stop offset="1" stop-color="#3FAE2A"/>
</linearGradient>
<linearGradient id="paint1_linear_9748_92874" x1="2367.96" y1="3525.75" x2="9237.06" y2="-198.958" gradientUnits="userSpaceOnUse">
<stop offset="0.1376" stop-color="#41873F"/>
<stop offset="0.4032" stop-color="#54A044"/>
<stop offset="0.7136" stop-color="#66B848"/>
<stop offset="0.9081" stop-color="#6CC04A"/>
</linearGradient>
<linearGradient id="paint2_linear_9748_92874" x1="-237.848" y1="3197.73" x2="5547.27" y2="3197.73" gradientUnits="userSpaceOnUse">
<stop offset="0.09192" stop-color="#6CC04A"/>
<stop offset="0.2864" stop-color="#66B848"/>
<stop offset="0.5968" stop-color="#54A044"/>
<stop offset="0.8624" stop-color="#41873F"/>
</linearGradient>
<clipPath id="clip0_9748_92874">
<rect width="56" height="64" fill="white" transform="translate(0.458252)"/>
</clipPath>
</defs>
</svg>
