<svg width="65" height="64" viewBox="0 0 65 64" fill="none" xmlns="http://www.w3.org/2000/svg">
<g opacity="0.8">
<path fill-rule="evenodd" clip-rule="evenodd" d="M32.9746 4.41797L56.8613 18.209V45.791L32.9746 59.582L9.08789 45.791V18.209L32.9746 4.41797ZM11.768 19.7563V40.0161L29.3135 9.62649L11.768 19.7563ZM32.9746 8.6455L12.749 43.6772H53.2002L32.9746 8.6455ZM50.5201 46.3574H15.4291L32.9746 56.4872L50.5201 46.3574ZM54.1812 40.0161L36.6357 9.62649L54.1812 19.7563V40.0161Z" fill="#E10098"/>
<path d="M32.9746 11.6104C36.0922 11.6104 38.6194 9.08314 38.6194 5.9656C38.6194 2.84806 36.0922 0.320801 32.9746 0.320801C29.8571 0.320801 27.3298 2.84806 27.3298 5.9656C27.3298 9.08314 29.8571 11.6104 32.9746 11.6104Z" fill="#E10098"/>
<path d="M55.5213 24.6275C58.6388 24.6275 61.1661 22.1002 61.1661 18.9827C61.1661 15.8652 58.6388 13.3379 55.5213 13.3379C52.4037 13.3379 49.8765 15.8652 49.8765 18.9827C49.8765 22.1002 52.4037 24.6275 55.5213 24.6275Z" fill="#E10098"/>
<path d="M55.5213 50.6622C58.6388 50.6622 61.1661 48.1349 61.1661 45.0174C61.1661 41.8998 58.6388 39.3726 55.5213 39.3726C52.4037 39.3726 49.8765 41.8998 49.8765 45.0174C49.8765 48.1349 52.4037 50.6622 55.5213 50.6622Z" fill="#E10098"/>
<path d="M32.9746 63.6792C36.0922 63.6792 38.6194 61.152 38.6194 58.0344C38.6194 54.9169 36.0922 52.3896 32.9746 52.3896C29.8571 52.3896 27.3298 54.9169 27.3298 58.0344C27.3298 61.152 29.8571 63.6792 32.9746 63.6792Z" fill="#E10098"/>
<path d="M10.4248 50.6622C13.5424 50.6622 16.0696 48.1349 16.0696 45.0174C16.0696 41.8998 13.5424 39.3726 10.4248 39.3726C7.30729 39.3726 4.78003 41.8998 4.78003 45.0174C4.78003 48.1349 7.30729 50.6622 10.4248 50.6622Z" fill="#E10098"/>
<path d="M10.4248 24.6275C13.5424 24.6275 16.0696 22.1002 16.0696 18.9827C16.0696 15.8652 13.5424 13.3379 10.4248 13.3379C7.30729 13.3379 4.78003 15.8652 4.78003 18.9827C4.78003 22.1002 7.30729 24.6275 10.4248 24.6275Z" fill="#E10098"/>
</g>
</svg>
