<svg width="22" height="64" viewBox="0 0 22 64" fill="none" xmlns="http://www.w3.org/2000/svg">
<path d="M0.5 0.81851V6.78788C1.15271 6.66944 1.81496 6.60912 2.47904 6.60782H2.48001C3.97407 6.60782 5.18196 6.92458 5.99684 7.8181C6.80018 8.69897 7.1195 10.0318 7.1195 11.8093V23.3596C7.1195 25.7599 7.39522 27.5261 8.04564 28.8161C8.68138 30.0769 9.69817 30.9274 11.3015 31.4547L11.6453 31.5678V31.9297V32.0777V32.4407L11.3003 32.5531C9.70481 33.0732 8.68828 33.919 8.05089 35.1794C7.3988 36.4688 7.1195 38.2387 7.1195 40.6478V52.1981C7.1195 53.9756 6.80018 55.3084 5.99684 56.1893C5.18196 57.0828 3.97407 57.3996 2.48001 57.3996H2.47904C1.81495 57.3983 1.15271 57.338 0.5 57.2195V63.1815C1.83299 63.3852 3.17905 63.4916 4.52766 63.5C8.29541 63.4996 10.962 62.4265 12.6885 60.6623C14.4176 58.8953 15.2705 56.3666 15.2705 53.3235V40.3036C15.2705 38.6234 15.4956 37.2924 16.2828 36.3973C17.0858 35.4841 18.3561 35.1502 20.1014 35.1502H21.5V28.9535H20.1014C18.3561 28.9535 17.0858 28.6195 16.2828 27.7064C15.4956 26.8113 15.2705 25.4803 15.2705 23.8001V10.6765C15.2705 7.60959 14.3977 5.0811 12.6583 3.31987C10.921 1.56064 8.25321 0.500291 4.52737 0.5C3.17886 0.508363 1.8329 0.614837 0.5 0.81851Z" stroke="white" stroke-opacity="0.3"/>
</svg>
