<svg width="65" height="64" viewBox="0 0 65 64" fill="none" xmlns="http://www.w3.org/2000/svg">
<g opacity="0.8" clip-path="url(#clip0_9748_92892)">
<path d="M40.2368 0C40.2368 0.112941 40.2368 0.225882 40.2368 0.345098C40.2368 4.39843 36.951 7.68314 32.8987 7.68314C28.8454 7.68314 25.5607 4.39739 25.5607 0.345098C25.5607 0.225882 25.5607 0.112941 25.5607 0L0.916504 0V64H64.9165V0H40.2368Z" fill="#654FF0"/>
<path d="M15.783 34.4897H20.0245L22.9202 49.9114H22.9725L26.4528 34.4897H30.4203L33.5639 50.1007H33.6256L36.926 34.4897H41.086L35.6805 57.1501H31.4713L28.3539 41.7284H28.2724L24.9354 57.1501H20.6478L15.783 34.4897ZM45.8682 34.4897H52.5547L59.1952 57.1501H54.8198L53.3756 52.1075H45.7584L44.6436 57.1501H40.3822L45.8682 34.4897ZM48.4135 40.0751L46.5636 48.3888H52.3215L50.1976 40.0751H48.4135Z" fill="white"/>
</g>
<defs>
<clipPath id="clip0_9748_92892">
<rect width="64" height="64" fill="white" transform="translate(0.916504)"/>
</clipPath>
</defs>
</svg>
